<svg xmlns="http://www.w3.org/2000/svg" xmlns:xlink="http://www.w3.org/1999/xlink" width="1920" zoomAndPan="magnify" viewBox="0 0 1440 809.999993" height="1080" preserveAspectRatio="xMidYMid meet" version="1.0"><defs><g/><clipPath id="1e5ad389fb"><path d="M 636 223.554688 L 710.667969 223.554688 L 710.667969 270.054688 L 636 270.054688 Z M 636 223.554688 " clip-rule="nonzero"/></clipPath><clipPath id="183938f839"><path d="M 676 265 L 710.667969 265 L 710.667969 270 L 676 270 Z M 676 265 " clip-rule="nonzero"/></clipPath><clipPath id="bc8ffc9f80"><path d="M 636 223.554688 L 675 223.554688 L 675 267 L 636 267 Z M 636 223.554688 " clip-rule="nonzero"/></clipPath><clipPath id="ec2b5f5fdf"><path d="M 636 223.554688 L 710.667969 223.554688 L 710.667969 270.054688 L 636 270.054688 Z M 636 223.554688 " clip-rule="nonzero"/></clipPath></defs><rect x="-144" width="1728" fill="#ffffff" y="-80.999999" height="971.999992" fill-opacity="1"/><rect x="-144" width="1728" fill="#ffffff" y="-80.999999" height="971.999992" fill-opacity="1"/><rect x="-144" width="1728" fill="#1c2465" y="-80.999999" height="971.999992" fill-opacity="1"/><g clip-path="url(#1e5ad389fb)"><path fill="#352652" d="M 636.339844 225.210938 C 636.390625 225.140625 636.445312 225.074219 636.503906 225.015625 L 636.5 225.007812 L 636.566406 224.953125 C 636.566406 224.949219 636.570312 224.949219 636.570312 224.945312 C 636.585938 224.933594 636.609375 224.914062 636.640625 224.886719 C 636.910156 224.648438 637.753906 223.914062 637.839844 223.851562 C 638.109375 223.65625 638.429688 223.554688 638.765625 223.554688 C 638.769531 223.554688 638.769531 223.554688 638.769531 223.554688 L 658.628906 223.609375 C 659.292969 223.609375 659.894531 224.035156 660.125 224.664062 L 674.449219 263.898438 C 674.660156 264.476562 674.535156 265.105469 674.117188 265.558594 L 674.054688 265.621094 C 674.007812 265.667969 673.957031 265.714844 673.910156 265.75 L 673.828125 265.820312 L 710.796875 265.820312 L 710.796875 268.152344 C 710.796875 269.207031 709.945312 270.0625 708.90625 270.0625 L 654.808594 270.0625 C 653.769531 270.0625 652.917969 269.207031 652.917969 268.152344 L 652.917969 266.992188 L 651.972656 266.988281 C 651.304688 266.984375 650.703125 266.5625 650.472656 265.929688 L 636.148438 226.695312 C 635.964844 226.191406 636.035156 225.652344 636.339844 225.210938 Z M 684.195312 266.839844 Z M 684.195312 266.839844 " fill-opacity="1" fill-rule="nonzero"/></g><path fill="#f14e24" d="M 653.019531 266.890625 L 653.019531 268.152344 C 653.019531 269.152344 653.824219 269.960938 654.808594 269.960938 L 677.566406 269.960938 L 677.609375 269.769531 C 676.996094 269.460938 676.617188 268.839844 676.617188 268.152344 L 676.617188 265.917969 L 673.558594 265.917969 L 672.925781 266.464844 C 672.632812 266.773438 672.25 266.9375 671.832031 266.9375 Z M 653.019531 266.890625 " fill-opacity="1" fill-rule="nonzero"/><g clip-path="url(#183938f839)"><path fill="#f14e24" d="M 710.695312 265.917969 L 710.695312 268.152344 C 710.695312 269.152344 709.890625 269.960938 708.90625 269.960938 L 678.40625 269.960938 C 677.417969 269.960938 676.617188 269.152344 676.617188 268.152344 L 676.617188 265.917969 Z M 685.296875 266.9375 C 685.296875 266.9375 684.648438 268.824219 684.648438 268.824219 Z M 684.195312 266.839844 L 684.195312 266.9375 L 683.546875 268.824219 L 684.195312 266.9375 C 684.195312 266.9375 684.195312 266.84375 684.195312 266.839844 Z M 681.988281 266.9375 C 681.988281 266.9375 681.339844 268.824219 681.339844 268.824219 Z M 681.988281 266.9375 " fill-opacity="1" fill-rule="nonzero"/></g><g clip-path="url(#bc8ffc9f80)"><path fill="#f4a261" d="M 636.96875 224.734375 L 637.34375 224.65625 C 637.453125 224.632812 637.554688 224.621094 637.652344 224.621094 L 657.511719 224.671875 C 658.136719 224.675781 658.703125 225.074219 658.917969 225.667969 L 673.242188 264.898438 C 673.351562 265.191406 673.367188 265.5 673.292969 265.792969 C 673.289062 265.8125 673.28125 265.835938 673.273438 265.855469 L 673.246094 265.9375 L 673.117188 266.296875 L 673.847656 265.667969 C 673.890625 265.636719 673.933594 265.601562 673.976562 265.558594 L 674 265.539062 C 674.425781 265.113281 674.5625 264.496094 674.355469 263.933594 L 660.03125 224.699219 C 659.816406 224.109375 659.25 223.710938 658.625 223.707031 L 638.769531 223.65625 C 638.453125 223.65625 638.152344 223.753906 637.898438 223.9375 C 637.882812 223.945312 637.839844 223.976562 637.257812 224.480469 Z M 636.96875 224.734375 " fill-opacity="1" fill-rule="nonzero"/></g><path fill="#f14e24" d="M 636.421875 225.269531 C 636.457031 225.214844 636.496094 225.167969 636.539062 225.121094 C 636.558594 225.097656 636.578125 225.078125 636.601562 225.058594 L 636.617188 225.042969 C 636.640625 225.015625 636.667969 224.992188 636.707031 224.960938 C 636.972656 224.738281 637.300781 224.621094 637.65625 224.621094 L 657.511719 224.671875 C 658.136719 224.675781 658.703125 225.074219 658.917969 225.667969 L 673.242188 264.898438 C 673.355469 265.207031 673.367188 265.535156 673.273438 265.855469 C 673.265625 265.886719 673.253906 265.921875 673.242188 265.953125 C 673.230469 265.988281 673.214844 266.019531 673.195312 266.0625 C 673.152344 266.152344 673.109375 266.226562 673.066406 266.292969 C 673.046875 266.316406 673.03125 266.335938 673.015625 266.359375 L 673 266.375 C 672.976562 266.40625 672.953125 266.433594 672.929688 266.457031 C 672.90625 266.484375 672.878906 266.511719 672.851562 266.535156 C 672.578125 266.796875 672.214844 266.9375 671.832031 266.9375 L 671.828125 266.9375 L 651.972656 266.886719 C 651.347656 266.886719 650.78125 266.488281 650.566406 265.894531 L 636.242188 226.664062 C 636.070312 226.191406 636.136719 225.683594 636.421875 225.269531 Z M 655.59375 247.507812 C 655.769531 247.039062 655.789062 246.425781 655.636719 245.78125 C 655.789062 246.425781 655.769531 247.039062 655.59375 247.507812 Z M 655.363281 247.921875 C 655.457031 247.804688 655.53125 247.667969 655.589844 247.515625 C 655.53125 247.667969 655.457031 247.804688 655.363281 247.921875 C 655.273438 248.039062 655.164062 248.136719 655.046875 248.207031 C 655.164062 248.136719 655.273438 248.039062 655.363281 247.921875 Z M 652.105469 245.78125 C 652.273438 246.488281 652.621094 247.128906 653.050781 247.59375 C 652.621094 247.128906 652.273438 246.488281 652.105469 245.78125 Z M 652.003906 244.851562 C 652.015625 244.363281 652.144531 243.9375 652.378906 243.640625 C 652.457031 243.539062 652.546875 243.453125 652.644531 243.386719 C 652.546875 243.453125 652.457031 243.539062 652.378906 243.640625 C 652.144531 243.9375 652.015625 244.363281 652.003906 244.851562 Z M 652.003906 244.921875 C 652.003906 244.996094 652.003906 245.074219 652.007812 245.152344 C 652.003906 245.074219 652.003906 244.996094 652.003906 244.921875 Z M 652.003906 244.921875 " fill-opacity="1" fill-rule="nonzero"/><g clip-path="url(#ec2b5f5fdf)"><path fill="#352652" d="M 636.339844 225.210938 C 636.390625 225.140625 636.445312 225.074219 636.503906 225.015625 L 636.5 225.007812 L 636.566406 224.953125 C 636.566406 224.949219 636.570312 224.945312 636.570312 224.945312 C 636.585938 224.933594 636.609375 224.914062 636.640625 224.886719 C 636.910156 224.648438 637.753906 223.914062 637.839844 223.851562 C 638.109375 223.65625 638.429688 223.554688 638.765625 223.554688 C 638.769531 223.554688 638.769531 223.554688 638.769531 223.554688 L 658.628906 223.609375 C 659.292969 223.609375 659.894531 224.035156 660.125 224.664062 L 674.449219 263.898438 C 674.660156 264.476562 674.535156 265.105469 674.117188 265.558594 L 674.054688 265.621094 C 674.007812 265.667969 673.957031 265.714844 673.910156 265.75 L 673.828125 265.820312 L 710.796875 265.820312 L 710.796875 268.152344 C 710.796875 269.207031 709.945312 270.0625 708.90625 270.0625 L 654.808594 270.0625 C 653.769531 270.0625 652.917969 269.207031 652.917969 268.152344 L 652.917969 266.992188 L 651.972656 266.988281 C 651.304688 266.984375 650.703125 266.5625 650.472656 265.929688 L 636.148438 226.695312 C 635.964844 226.191406 636.035156 225.652344 636.339844 225.210938 Z M 636.335938 226.628906 L 650.660156 265.859375 C 650.863281 266.414062 651.390625 266.785156 651.972656 266.785156 L 652.917969 266.789062 L 653.121094 266.789062 L 671.828125 266.839844 C 671.832031 266.839844 671.832031 266.839844 671.832031 266.839844 C 672.195312 266.839844 672.527344 266.703125 672.785156 266.460938 C 672.808594 266.4375 672.832031 266.414062 672.855469 266.390625 C 672.878906 266.367188 672.898438 266.339844 672.921875 266.3125 C 672.941406 266.285156 672.964844 266.261719 672.984375 266.234375 C 673.03125 266.164062 673.070312 266.09375 673.101562 266.019531 C 673.117188 265.988281 673.136719 265.953125 673.148438 265.917969 C 673.160156 265.886719 673.171875 265.851562 673.179688 265.820312 C 673.261719 265.53125 673.257812 265.226562 673.148438 264.933594 L 658.824219 225.699219 C 658.625 225.148438 658.097656 224.777344 657.511719 224.773438 L 637.65625 224.722656 C 637.65625 224.722656 637.65625 224.722656 637.652344 224.722656 C 637.320312 224.722656 637.015625 224.835938 636.769531 225.039062 C 636.738281 225.0625 636.710938 225.089844 636.6875 225.117188 C 636.660156 225.140625 636.636719 225.164062 636.613281 225.1875 C 636.574219 225.230469 636.539062 225.277344 636.503906 225.328125 C 636.238281 225.710938 636.175781 226.1875 636.335938 226.628906 Z M 653.121094 268.152344 C 653.121094 269.09375 653.878906 269.859375 654.808594 269.859375 L 677.566406 269.859375 C 676.945312 269.546875 676.515625 268.902344 676.515625 268.152344 L 676.515625 266.019531 L 673.59375 266.019531 L 672.988281 266.539062 C 672.6875 266.859375 672.28125 267.039062 671.832031 267.039062 C 671.832031 267.039062 671.832031 267.039062 671.828125 267.039062 L 653.121094 266.992188 Z M 708.90625 269.859375 C 709.835938 269.859375 710.59375 269.09375 710.59375 268.152344 L 710.59375 266.019531 L 676.714844 266.019531 L 676.714844 268.152344 C 676.714844 269.09375 677.472656 269.859375 678.40625 269.859375 Z M 673.929688 265.464844 C 674.328125 265.070312 674.453125 264.496094 674.261719 263.96875 L 659.9375 224.734375 C 659.738281 224.183594 659.210938 223.8125 658.625 223.808594 L 638.769531 223.757812 C 638.769531 223.757812 638.769531 223.757812 638.765625 223.757812 C 638.472656 223.757812 638.191406 223.847656 637.953125 224.019531 C 637.914062 224.046875 637.640625 224.285156 637.324219 224.558594 C 637.429688 224.535156 637.539062 224.519531 637.652344 224.519531 C 637.65625 224.519531 637.65625 224.519531 637.65625 224.519531 L 657.515625 224.574219 C 658.179688 224.574219 658.78125 225 659.011719 225.632812 L 673.335938 264.863281 C 673.453125 265.179688 673.46875 265.507812 673.390625 265.820312 C 673.382812 265.851562 673.367188 265.886719 673.359375 265.917969 C 673.351562 265.9375 673.347656 265.957031 673.339844 265.972656 L 673.402344 265.917969 L 673.519531 265.820312 L 673.785156 265.59375 C 673.828125 265.558594 673.867188 265.523438 673.90625 265.488281 Z M 685.390625 266.972656 C 685.410156 266.917969 685.382812 266.863281 685.328125 266.84375 C 685.277344 266.824219 685.222656 266.855469 685.203125 266.90625 L 684.554688 268.789062 C 684.535156 268.84375 684.566406 268.902344 684.617188 268.917969 C 684.628906 268.921875 684.640625 268.925781 684.648438 268.925781 C 684.691406 268.925781 684.730469 268.898438 684.742188 268.855469 Z M 682.082031 266.972656 C 682.101562 266.917969 682.074219 266.863281 682.019531 266.84375 C 681.96875 266.824219 681.910156 266.855469 681.894531 266.90625 L 681.246094 268.789062 C 681.226562 268.84375 681.257812 268.902344 681.308594 268.917969 C 681.320312 268.921875 681.328125 268.925781 681.339844 268.925781 C 681.382812 268.925781 681.421875 268.898438 681.433594 268.855469 Z M 684.289062 266.972656 C 684.308594 266.917969 684.277344 266.863281 684.226562 266.84375 C 684.175781 266.824219 684.117188 266.855469 684.101562 266.90625 L 683.453125 268.789062 C 683.433594 268.84375 683.460938 268.902344 683.515625 268.917969 C 683.523438 268.921875 683.535156 268.925781 683.546875 268.925781 C 683.589844 268.925781 683.625 268.898438 683.640625 268.855469 Z M 683.1875 266.972656 C 683.203125 266.917969 683.175781 266.863281 683.125 266.84375 C 683.070312 266.824219 683.015625 266.855469 682.996094 266.90625 L 682.347656 268.789062 C 682.332031 268.84375 682.359375 268.902344 682.410156 268.917969 C 682.421875 268.921875 682.433594 268.925781 682.445312 268.925781 C 682.484375 268.925781 682.523438 268.898438 682.539062 268.855469 Z M 653.257812 243.101562 C 654.273438 243.101562 655.386719 244.292969 655.734375 245.757812 C 655.945312 246.648438 655.835938 247.480469 655.441406 247.984375 C 655.199219 248.296875 654.867188 248.460938 654.484375 248.460938 C 653.46875 248.460938 652.359375 247.269531 652.007812 245.804688 C 651.796875 244.914062 651.90625 244.082031 652.300781 243.578125 C 652.542969 243.265625 652.875 243.101562 653.257812 243.101562 Z M 652.203125 245.757812 C 652.53125 247.136719 653.554688 248.257812 654.484375 248.257812 C 654.804688 248.257812 655.082031 248.121094 655.285156 247.859375 C 655.640625 247.402344 655.738281 246.636719 655.539062 245.804688 C 655.210938 244.425781 654.1875 243.304688 653.257812 243.304688 C 652.9375 243.304688 652.660156 243.441406 652.457031 243.703125 C 652.101562 244.15625 652.003906 244.925781 652.203125 245.757812 Z M 652.203125 245.757812 " fill-opacity="1" fill-rule="nonzero"/></g><g fill="#ffffff" fill-opacity="1"><g transform="translate(533.441286, 269.131749)"><g><path d="M 14.578125 0 L 9.453125 0 L 1.796875 -33.359375 L 5.6875 -33.359375 L 11.953125 -5.765625 L 12.53125 -5.765625 L 20.015625 -33.359375 L 23.640625 -33.359375 L 31.125 -5.765625 L 31.703125 -5.765625 L 38 -33.359375 L 41.765625 -33.359375 L 34.140625 0 L 28.984375 0 L 22.015625 -25.265625 L 21.546875 -25.265625 Z M 14.578125 0 "/></g></g></g><g fill="#ffffff" fill-opacity="1"><g transform="translate(576.992829, 269.131749)"><g><path d="M 23.984375 -11.734375 L 6.6875 -11.734375 C 6.789062 -8.671875 7.523438 -6.425781 8.890625 -5 C 10.253906 -3.570312 12.117188 -2.859375 14.484375 -2.859375 C 16.285156 -2.859375 17.734375 -3.175781 18.828125 -3.8125 C 19.921875 -4.445312 20.78125 -5.453125 21.40625 -6.828125 L 21.890625 -6.828125 L 24.296875 -5.390625 C 23.566406 -3.554688 22.398438 -2.117188 20.796875 -1.078125 C 19.191406 -0.0351562 17.085938 0.484375 14.484375 0.484375 C 12.054688 0.484375 9.96875 0.00390625 8.21875 -0.953125 C 6.46875 -1.910156 5.117188 -3.363281 4.171875 -5.3125 C 3.234375 -7.257812 2.765625 -9.679688 2.765625 -12.578125 C 2.765625 -15.429688 3.257812 -17.835938 4.25 -19.796875 C 5.25 -21.765625 6.613281 -23.234375 8.34375 -24.203125 C 10.070312 -25.171875 12.046875 -25.65625 14.265625 -25.65625 C 17.484375 -25.65625 20 -24.742188 21.8125 -22.921875 C 23.625 -21.097656 24.535156 -18.398438 24.546875 -14.828125 C 24.546875 -13.429688 24.519531 -12.488281 24.46875 -12 Z M 20.875 -14.828125 C 20.8125 -17.503906 20.21875 -19.453125 19.09375 -20.671875 C 17.96875 -21.890625 16.359375 -22.5 14.265625 -22.5 C 12.054688 -22.5 10.320312 -21.882812 9.0625 -20.65625 C 7.8125 -19.4375 7.050781 -17.492188 6.78125 -14.828125 Z M 20.875 -14.828125 "/></g></g></g><g fill="#ffffff" fill-opacity="1"><g transform="translate(603.821853, 269.131749)"><g><path d="M 23.984375 -11.734375 L 6.6875 -11.734375 C 6.789062 -8.671875 7.523438 -6.425781 8.890625 -5 C 10.253906 -3.570312 12.117188 -2.859375 14.484375 -2.859375 C 16.285156 -2.859375 17.734375 -3.175781 18.828125 -3.8125 C 19.921875 -4.445312 20.78125 -5.453125 21.40625 -6.828125 L 21.890625 -6.828125 L 24.296875 -5.390625 C 23.566406 -3.554688 22.398438 -2.117188 20.796875 -1.078125 C 19.191406 -0.0351562 17.085938 0.484375 14.484375 0.484375 C 12.054688 0.484375 9.96875 0.00390625 8.21875 -0.953125 C 6.46875 -1.910156 5.117188 -3.363281 4.171875 -5.3125 C 3.234375 -7.257812 2.765625 -9.679688 2.765625 -12.578125 C 2.765625 -15.429688 3.257812 -17.835938 4.25 -19.796875 C 5.25 -21.765625 6.613281 -23.234375 8.34375 -24.203125 C 10.070312 -25.171875 12.046875 -25.65625 14.265625 -25.65625 C 17.484375 -25.65625 20 -24.742188 21.8125 -22.921875 C 23.625 -21.097656 24.535156 -18.398438 24.546875 -14.828125 C 24.546875 -13.429688 24.519531 -12.488281 24.46875 -12 Z M 20.875 -14.828125 C 20.8125 -17.503906 20.21875 -19.453125 19.09375 -20.671875 C 17.96875 -21.890625 16.359375 -22.5 14.265625 -22.5 C 12.054688 -22.5 10.320312 -21.882812 9.0625 -20.65625 C 7.8125 -19.4375 7.050781 -17.492188 6.78125 -14.828125 Z M 20.875 -14.828125 "/></g></g></g><g fill="#ffffff" fill-opacity="1"><g transform="translate(630.648313, 269.131749)"><g/></g></g><g fill="#ffffff" fill-opacity="1"><g transform="translate(642.100838, 269.131749)"><g/></g></g><g fill="#ffffff" fill-opacity="1"><g transform="translate(653.553364, 269.131749)"><g/></g></g><g fill="#ffffff" fill-opacity="1"><g transform="translate(665.005889, 269.131749)"><g/></g></g><g fill="#ffffff" fill-opacity="1"><g transform="translate(676.458415, 269.131749)"><g/></g></g><g fill="#ffffff" fill-opacity="1"><g transform="translate(687.91094, 269.131749)"><g/></g></g><g fill="#ffffff" fill-opacity="1"><g transform="translate(699.363466, 269.131749)"><g/></g></g><g fill="#ffffff" fill-opacity="1"><g transform="translate(710.815991, 269.131749)"><g/></g></g><g fill="#ffffff" fill-opacity="1"><g transform="translate(722.265499, 269.131749)"><g><path d="M 10.390625 0.484375 C 7.898438 0.484375 5.957031 -0.160156 4.5625 -1.453125 C 3.175781 -2.753906 2.484375 -4.601562 2.484375 -7 C 2.484375 -8.488281 2.789062 -9.75 3.40625 -10.78125 C 4.019531 -11.8125 4.972656 -12.648438 6.265625 -13.296875 C 7.566406 -13.941406 9.257812 -14.4375 11.34375 -14.78125 C 13.164062 -15.09375 14.550781 -15.4375 15.5 -15.8125 C 16.457031 -16.195312 17.097656 -16.625 17.421875 -17.09375 C 17.742188 -17.5625 17.90625 -18.15625 17.90625 -18.875 C 17.90625 -20.007812 17.515625 -20.878906 16.734375 -21.484375 C 15.953125 -22.097656 14.695312 -22.40625 12.96875 -22.40625 C 11.332031 -22.40625 9.929688 -22.085938 8.765625 -21.453125 C 7.609375 -20.828125 6.539062 -19.890625 5.5625 -18.640625 L 5.109375 -18.640625 L 3.28125 -21.21875 C 4.351562 -22.570312 5.707031 -23.648438 7.34375 -24.453125 C 8.988281 -25.253906 10.863281 -25.65625 12.96875 -25.65625 C 15.925781 -25.65625 18.109375 -25.003906 19.515625 -23.703125 C 20.929688 -22.398438 21.640625 -20.597656 21.640625 -18.296875 L 21.640625 -4.953125 C 21.640625 -3.554688 22.226562 -2.859375 23.40625 -2.859375 C 23.800781 -2.859375 24.179688 -2.925781 24.546875 -3.0625 L 24.875 -2.96875 L 25.3125 -0.390625 C 25.03125 -0.203125 24.664062 -0.0625 24.21875 0.03125 C 23.769531 0.132812 23.3125 0.1875 22.84375 0.1875 C 21.457031 0.1875 20.410156 -0.113281 19.703125 -0.71875 C 18.992188 -1.332031 18.539062 -2.234375 18.34375 -3.421875 L 17.875 -3.46875 C 17.15625 -2.144531 16.1875 -1.15625 14.96875 -0.5 C 13.75 0.15625 12.222656 0.484375 10.390625 0.484375 Z M 11.203125 -2.484375 C 12.597656 -2.484375 13.8125 -2.804688 14.84375 -3.453125 C 15.875 -4.097656 16.660156 -5.003906 17.203125 -6.171875 C 17.753906 -7.347656 18.03125 -8.707031 18.03125 -10.25 L 18.03125 -13.4375 L 17.59375 -13.53125 C 17.03125 -13.132812 16.34375 -12.800781 15.53125 -12.53125 C 14.726562 -12.269531 13.601562 -12.035156 12.15625 -11.828125 C 10.695312 -11.628906 9.535156 -11.320312 8.671875 -10.90625 C 7.816406 -10.5 7.207031 -9.976562 6.84375 -9.34375 C 6.476562 -8.707031 6.296875 -7.925781 6.296875 -7 C 6.296875 -5.53125 6.726562 -4.410156 7.59375 -3.640625 C 8.46875 -2.867188 9.671875 -2.484375 11.203125 -2.484375 Z M 11.203125 -2.484375 "/></g></g></g><g fill="#ffffff" fill-opacity="1"><g transform="translate(748.296046, 269.131749)"><g><path d="M 4.375 0 L 4.375 -25.171875 L 7.921875 -25.171875 L 7.921875 -21.21875 L 8.390625 -21.109375 C 9.234375 -22.585938 10.304688 -23.710938 11.609375 -24.484375 C 12.910156 -25.265625 14.492188 -25.65625 16.359375 -25.65625 C 19.390625 -25.65625 21.582031 -24.878906 22.9375 -23.328125 C 24.300781 -21.785156 24.984375 -19.410156 24.984375 -16.203125 L 24.984375 0 L 21.265625 0 L 21.265625 -16.109375 C 21.265625 -17.628906 21.070312 -18.847656 20.6875 -19.765625 C 20.300781 -20.691406 19.695312 -21.363281 18.875 -21.78125 C 18.0625 -22.195312 16.992188 -22.40625 15.671875 -22.40625 C 13.410156 -22.40625 11.582031 -21.65625 10.1875 -20.15625 C 8.789062 -18.65625 8.09375 -16.242188 8.09375 -12.921875 L 8.09375 0 Z M 4.375 0 "/></g></g></g><g fill="#ffffff" fill-opacity="1"><g transform="translate(777.269567, 269.131749)"><g><path d="M 14.4375 0.484375 C 12.21875 0.484375 10.222656 -0.0195312 8.453125 -1.03125 C 6.691406 -2.050781 5.300781 -3.546875 4.28125 -5.515625 C 3.269531 -7.484375 2.765625 -9.835938 2.765625 -12.578125 C 2.765625 -15.328125 3.269531 -17.6875 4.28125 -19.65625 C 5.300781 -21.625 6.691406 -23.113281 8.453125 -24.125 C 10.222656 -25.144531 12.21875 -25.65625 14.4375 -25.65625 C 17.101562 -25.65625 19.222656 -25.148438 20.796875 -24.140625 C 22.367188 -23.140625 23.507812 -21.800781 24.21875 -20.125 L 21.671875 -18.296875 L 21.21875 -18.296875 C 20.53125 -19.679688 19.648438 -20.695312 18.578125 -21.34375 C 17.515625 -21.988281 16.132812 -22.3125 14.4375 -22.3125 C 12.882812 -22.3125 11.523438 -21.945312 10.359375 -21.21875 C 9.191406 -20.488281 8.28125 -19.394531 7.625 -17.9375 C 6.976562 -16.476562 6.65625 -14.691406 6.65625 -12.578125 C 6.65625 -10.472656 6.984375 -8.691406 7.640625 -7.234375 C 8.296875 -5.785156 9.203125 -4.691406 10.359375 -3.953125 C 11.523438 -3.222656 12.882812 -2.859375 14.4375 -2.859375 C 16.1875 -2.859375 17.632812 -3.25 18.78125 -4.03125 C 19.9375 -4.820312 20.84375 -6.070312 21.5 -7.78125 L 21.96875 -7.78125 L 24.421875 -6.34375 C 23.765625 -4.226562 22.59375 -2.5625 20.90625 -1.34375 C 19.226562 -0.125 17.070312 0.484375 14.4375 0.484375 Z M 14.4375 0.484375 "/></g></g></g><g fill="#ffffff" fill-opacity="1"><g transform="translate(803.208858, 269.131749)"><g><path d="M 23.984375 -11.734375 L 6.6875 -11.734375 C 6.789062 -8.671875 7.523438 -6.425781 8.890625 -5 C 10.253906 -3.570312 12.117188 -2.859375 14.484375 -2.859375 C 16.285156 -2.859375 17.734375 -3.175781 18.828125 -3.8125 C 19.921875 -4.445312 20.78125 -5.453125 21.40625 -6.828125 L 21.890625 -6.828125 L 24.296875 -5.390625 C 23.566406 -3.554688 22.398438 -2.117188 20.796875 -1.078125 C 19.191406 -0.0351562 17.085938 0.484375 14.484375 0.484375 C 12.054688 0.484375 9.96875 0.00390625 8.21875 -0.953125 C 6.46875 -1.910156 5.117188 -3.363281 4.171875 -5.3125 C 3.234375 -7.257812 2.765625 -9.679688 2.765625 -12.578125 C 2.765625 -15.429688 3.257812 -17.835938 4.25 -19.796875 C 5.25 -21.765625 6.613281 -23.234375 8.34375 -24.203125 C 10.070312 -25.171875 12.046875 -25.65625 14.265625 -25.65625 C 17.484375 -25.65625 20 -24.742188 21.8125 -22.921875 C 23.625 -21.097656 24.535156 -18.398438 24.546875 -14.828125 C 24.546875 -13.429688 24.519531 -12.488281 24.46875 -12 Z M 20.875 -14.828125 C 20.8125 -17.503906 20.21875 -19.453125 19.09375 -20.671875 C 17.96875 -21.890625 16.359375 -22.5 14.265625 -22.5 C 12.054688 -22.5 10.320312 -21.882812 9.0625 -20.65625 C 7.8125 -19.4375 7.050781 -17.492188 6.78125 -14.828125 Z M 20.875 -14.828125 "/></g></g></g></svg>